<svg id="Group_7439" data-name="Group 7439" xmlns="http://www.w3.org/2000/svg" width="310.367" height="56.452" viewBox="0 0 310.367 56.452">
  <path id="Path_7545" data-name="Path 7545" d="M11.62,159.186c0,5.495-3.922,9.65-12.019,9.65A17.96,17.96,0,0,1-11,165.807a2.925,2.925,0,0,1-1.34-2.466,3,3,0,0,1,2.971-3.029,2.843,2.843,0,0,1,1.709.544,12.9,12.9,0,0,0,7.572,2.388c3.514,0,5.223-1.67,5.223-3.4,0-2.252-2.621-3.01-6.077-3.825-4.912-1.126-11.223-2.485-11.223-9.2,0-5.009,4.33-9.068,11.844-9.068A17.964,17.964,0,0,1,9,140.235a2.9,2.9,0,0,1,1.5,2.524,3,3,0,0,1-2.932,2.971,2.8,2.8,0,0,1-1.534-.447,13.93,13.93,0,0,0-6.8-1.942c-3.34,0-4.874,1.262-4.874,3.068,0,2.039,2.524,2.66,6,3.476C5.31,151.012,11.62,152.507,11.62,159.186Z" transform="translate(298.747 -125.063)" fill="#338287"/>
  <path id="Path_7546" data-name="Path 7546" d="M-12.617,151.785a4.086,4.086,0,0,0,4.408-4.155,4.114,4.114,0,0,0-4.408-4.136h-6.815v8.291Zm-9.825-13.805h10.679c6.524,0,10.077,4.427,10.077,9.708,0,5.223-3.592,9.611-10.077,9.611h-7.67v7.883a3.2,3.2,0,0,1-3.145,3.2,3.24,3.24,0,0,1-3.243-3.2v-23.8A3.074,3.074,0,0,1-22.442,137.98Z" transform="translate(286.053 -124.846)" fill="#338287"/>
  <path id="Path_7547" data-name="Path 7547" d="M-32.492,162.523H-20.1a2.8,2.8,0,0,1,2.8,2.757,2.809,2.809,0,0,1-2.8,2.8H-35.5a3.077,3.077,0,0,1-3.378-3.437v-23.28A3.059,3.059,0,0,1-35.5,137.98h15.4a2.784,2.784,0,0,1,2.8,2.8,2.769,2.769,0,0,1-2.8,2.718H-32.492v6.543h12.077a2.8,2.8,0,0,1,2.8,2.738,2.776,2.776,0,0,1-2.8,2.757H-32.492Z" transform="translate(273.755 -124.846)" fill="#338287"/>
  <path id="Path_7548" data-name="Path 7548" d="M-37.6,143.63v21.552a3.245,3.245,0,0,1-3.2,3.2,3.24,3.24,0,0,1-3.243-3.2V143.63h-6.272a2.843,2.843,0,0,1-2.835-2.8,2.855,2.855,0,0,1,2.835-2.854h18.97a2.855,2.855,0,0,1,2.835,2.854,2.843,2.843,0,0,1-2.835,2.8Z" transform="translate(260.318 -124.846)" fill="#338287"/>
  <path id="Path_7549" data-name="Path 7549" d="M-61.411,160.856a12.9,12.9,0,0,0,7.572,2.388c3.514,0,5.223-1.67,5.223-3.4,0-2.252-2.621-3.01-6.077-3.825-4.912-1.126-11.223-2.485-11.223-9.2,0-5.009,4.33-9.068,11.844-9.068a18.014,18.014,0,0,1,9.32,2.485,2.9,2.9,0,0,1,1.5,2.524,3,3,0,0,1-2.932,2.971,2.88,2.88,0,0,1-1.534-.447,13.93,13.93,0,0,0-6.8-1.942c-3.34,0-4.874,1.262-4.874,3.068,0,2.039,2.524,2.66,6,3.476,4.951,1.126,11.262,2.621,11.262,9.3,0,5.495-3.922,9.65-12.038,9.65a17.9,17.9,0,0,1-10.582-3.029,2.925,2.925,0,0,1-1.34-2.466,3,3,0,0,1,2.971-3.029A2.843,2.843,0,0,1-61.411,160.856Z" transform="translate(248.133 -125.063)" fill="#338287"/>
  <path id="Path_7550" data-name="Path 7550" d="M-76.993,162.523H-64.6a2.8,2.8,0,0,1,2.777,2.757,2.805,2.805,0,0,1-2.777,2.8H-80.022a3.085,3.085,0,0,1-3.378-3.437v-23.28a3.068,3.068,0,0,1,3.378-3.378H-64.6a2.78,2.78,0,0,1,2.777,2.8,2.764,2.764,0,0,1-2.777,2.718H-76.993v6.543h12.058a2.8,2.8,0,0,1,2.8,2.738,2.776,2.776,0,0,1-2.8,2.757H-76.993Z" transform="translate(231.833 -124.846)" fill="#338287"/>
  <path id="Path_7551" data-name="Path 7551" d="M-89.893,150.038h12.058a2.8,2.8,0,0,1,2.8,2.738,2.776,2.776,0,0,1-2.8,2.757H-89.893v9.65a3.2,3.2,0,0,1-3.165,3.2,3.253,3.253,0,0,1-3.243-3.2v-23.8a3.074,3.074,0,0,1,3.378-3.4H-77.5a2.8,2.8,0,0,1,2.8,2.8,2.769,2.769,0,0,1-2.8,2.718H-89.893Z" transform="translate(219.685 -124.846)" fill="#338287"/>
  <path id="Path_7552" data-name="Path 7552" d="M-98.179,143.684l-4.776,13.63H-93.4Zm5.262-2.252,8.737,22.737a2.912,2.912,0,0,1,.272,1.126,3.257,3.257,0,0,1-3.281,3.243,3.153,3.153,0,0,1-3.029-2.155l-1.2-3.514h-13.514l-1.223,3.514a3.225,3.225,0,0,1-3.068,2.155,3.236,3.236,0,0,1-3.243-3.243,2.909,2.909,0,0,1,.233-1.126l8.776-22.737a5.59,5.59,0,0,1,5.281-3.611A5.646,5.646,0,0,1-92.918,141.432Z" transform="translate(204.459 -124.997)" fill="#338287"/>
  <path id="Path_7553" data-name="Path 7553" d="M-101.59,159.186c0,5.495-3.922,9.65-12.019,9.65a17.853,17.853,0,0,1-10.582-3.029,2.923,2.923,0,0,1-1.359-2.466,3.021,3.021,0,0,1,2.971-3.029,2.8,2.8,0,0,1,1.709.544,12.9,12.9,0,0,0,7.572,2.388c3.514,0,5.223-1.67,5.223-3.379,0-2.272-2.621-3.029-6.077-3.844-4.912-1.126-11.223-2.485-11.223-9.2,0-5.009,4.33-9.068,11.844-9.068a18.083,18.083,0,0,1,9.339,2.485,2.883,2.883,0,0,1,1.476,2.524,2.975,2.975,0,0,1-2.932,2.971,2.88,2.88,0,0,1-1.534-.447,14.142,14.142,0,0,0-6.8-1.942c-3.34,0-4.854,1.262-4.854,3.068,0,2.039,2.524,2.66,5.98,3.476C-107.9,151.012-101.59,152.507-101.59,159.186Z" transform="translate(192.142 -125.063)" fill="#338287"/>
  <path id="Path_7554" data-name="Path 7554" d="M-128.146,172.057l18.815-18.776a3.257,3.257,0,0,1,3.32-.777,3.2,3.2,0,0,1,2.194,2.6,28.558,28.558,0,0,1,.214,6.932,28.109,28.109,0,0,1-25.2,25.494,27.326,27.326,0,0,1-2.815.136,28.147,28.147,0,0,1-19.455-7.747,28.31,28.31,0,0,1-8.737-21.824,28.48,28.48,0,0,1,26.251-26.814,27.845,27.845,0,0,1,20.912,7.32,2.886,2.886,0,0,1,.194,4.077,2.88,2.88,0,0,1-4.058.175,22.322,22.322,0,0,0-15.145-5.9c-.5,0-1.029.019-1.534.058a22.689,22.689,0,0,0-20.892,21.358,22.512,22.512,0,0,0,6.971,17.378,22.58,22.58,0,0,0,17.747,6.077,22.672,22.672,0,0,0,20.057-20.31l.019-.155-14.815,14.776a8.08,8.08,0,0,1-11.4-.019l-11.65-11.669a10.956,10.956,0,0,1-.447-14.931,10.558,10.558,0,0,1,7.514-3.32,10.635,10.635,0,0,1,7.611,3.087l2.679,2.679,7.165-7.2a2.877,2.877,0,0,1,4.058,0,2.864,2.864,0,0,1,.835,2.039,2.864,2.864,0,0,1-.835,2.039l-9.2,9.223a2.9,2.9,0,0,1-4.058,0l-4.7-4.7a4.719,4.719,0,0,0-3.456-1.417,4.812,4.812,0,0,0-3.437,1.514,5.19,5.19,0,0,0,.33,6.932l11.65,11.669A2.368,2.368,0,0,0-128.146,172.057Z" transform="translate(159.846 -131.216)" fill="#338287"/>
</svg>
