<?xml version="1.0" encoding="utf-8"?>
<!-- Generator: Adobe Illustrator 15.0.0, SVG Export Plug-In . SVG Version: 6.00 Build 0)  -->
<!DOCTYPE svg PUBLIC "-//W3C//DTD SVG 1.1//EN" "http://www.w3.org/Graphics/SVG/1.1/DTD/svg11.dtd">
<svg version="1.1" id="Group_7439" xmlns="http://www.w3.org/2000/svg" xmlns:xlink="http://www.w3.org/1999/xlink" x="0px" y="0px"
	 width="310.367px" height="56.453px" viewBox="0 0 310.367 56.453" enable-background="new 0 0 310.367 56.453"
	 xml:space="preserve">
<path id="Path_7545" fill="#FFFFFF" d="M310.367,34.123c0,5.496-3.922,9.65-12.019,9.65c-3.765,0.127-7.473-0.933-10.602-3.029
	c-0.838-0.539-1.343-1.469-1.34-2.466c-0.016-1.657,1.314-3.013,2.971-3.028l0,0c0.614-0.008,1.213,0.183,1.709,0.543
	c2.211,1.572,4.86,2.408,7.572,2.389c3.514,0,5.223-1.67,5.223-3.4c0-2.252-2.62-3.01-6.076-3.824
	c-4.912-1.127-11.224-2.485-11.224-9.201c0-5.009,4.33-9.068,11.844-9.068c3.275-0.037,6.499,0.822,9.321,2.484
	c0.921,0.507,1.495,1.473,1.5,2.524c-0.015,1.619-1.312,2.934-2.932,2.971c-0.544,0.003-1.077-0.152-1.534-0.447
	c-2.062-1.221-4.404-1.89-6.8-1.942c-3.34,0-4.874,1.262-4.874,3.068c0,2.039,2.523,2.66,6,3.476
	C304.057,25.949,310.367,27.444,310.367,34.123z"/>
<path id="Path_7546" fill="#FFFFFF" d="M273.436,26.939c2.249,0.178,4.218-1.501,4.396-3.75c0.011-0.134,0.015-0.27,0.013-0.404
	c0.018-2.272-1.81-4.128-4.082-4.146c-0.108-0.001-0.218,0.002-0.326,0.01h-6.815v8.291H273.436z M263.611,13.134h10.679
	c6.524,0,10.077,4.427,10.077,9.708c0,5.223-3.592,9.611-10.077,9.611h-7.67v7.883c0,1.746-1.399,3.17-3.145,3.201
	c-1.775,0.001-3.222-1.426-3.243-3.201V16.536c-0.19-1.687,1.022-3.209,2.709-3.4C263.164,13.111,263.388,13.11,263.611,13.134
	L263.611,13.134z"/>
<path id="Path_7547" fill="#FFFFFF" d="M241.263,37.677h12.392c1.529,0,2.776,1.227,2.8,2.757c-0.005,1.544-1.256,2.795-2.8,2.8
	h-15.4c-1.689,0.18-3.205-1.045-3.384-2.736c-0.024-0.232-0.022-0.468,0.006-0.701V16.517c-0.189-1.679,1.019-3.193,2.697-3.382
	c0.227-0.026,0.455-0.026,0.681-0.001h15.4c1.537-0.009,2.791,1.23,2.8,2.768c0,0.011,0,0.021,0,0.032
	c-0.027,1.521-1.278,2.735-2.8,2.718h-12.392v6.543h12.076c1.522,0,2.767,1.216,2.801,2.738c-0.011,1.533-1.262,2.768-2.795,2.757
	c-0.002,0-0.004,0-0.006,0h-12.076V37.677z"/>
<path id="Path_7548" fill="#FFFFFF" d="M222.718,18.784v21.551c-0.023,1.758-1.442,3.176-3.199,3.201
	c-1.775,0.001-3.222-1.426-3.243-3.201V18.784h-6.272c-1.55-0.004-2.812-1.25-2.835-2.8c0.001-1.568,1.267-2.843,2.835-2.854h18.971
	c1.568,0.011,2.834,1.286,2.835,2.854c-0.023,1.55-1.285,2.796-2.835,2.8H222.718z"/>
<path id="Path_7549" fill="#FFFFFF" d="M186.722,35.792c2.21,1.572,4.859,2.408,7.571,2.389c3.515,0,5.224-1.67,5.224-3.4
	c0-2.252-2.621-3.01-6.077-3.824c-4.912-1.127-11.224-2.485-11.224-9.201c0-5.009,4.33-9.068,11.845-9.068
	c3.274-0.034,6.497,0.825,9.319,2.485c0.921,0.508,1.495,1.473,1.5,2.524c-0.015,1.619-1.312,2.934-2.932,2.971
	c-0.543-0.001-1.075-0.156-1.534-0.447c-2.062-1.222-4.403-1.891-6.8-1.942c-3.34,0-4.874,1.262-4.874,3.068
	c0,2.039,2.524,2.66,6,3.476c4.951,1.126,11.262,2.621,11.262,9.299c0,5.496-3.922,9.65-12.038,9.65
	c-3.758,0.127-7.46-0.934-10.582-3.029c-0.837-0.539-1.342-1.469-1.34-2.466c-0.016-1.657,1.314-3.013,2.971-3.028c0,0,0,0,0.001,0
	C185.627,35.242,186.226,35.432,186.722,35.792z"/>
<path id="Path_7550" fill="#FFFFFF" d="M154.84,37.677h12.394c1.521,0.012,2.754,1.236,2.776,2.757
	c-0.002,1.536-1.24,2.784-2.776,2.8h-15.422c-1.695,0.174-3.21-1.059-3.384-2.754c-0.023-0.227-0.021-0.456,0.006-0.684V16.517
	c-0.182-1.685,1.038-3.197,2.723-3.378c0.218-0.023,0.438-0.023,0.655,0h15.422c1.535,0.001,2.778,1.248,2.777,2.783
	c0,0.006,0,0.011-0.001,0.017c-0.024,1.514-1.263,2.725-2.776,2.718H154.84V25.2h12.059c1.522,0,2.766,1.216,2.8,2.738
	c-0.011,1.533-1.262,2.768-2.795,2.757c-0.002,0-0.003,0-0.005,0H154.84V37.677z"/>
<path id="Path_7551" fill="#FFFFFF" d="M129.792,25.192h12.059c1.522,0,2.766,1.216,2.8,2.738c-0.011,1.532-1.262,2.767-2.795,2.757
	c-0.002,0-0.004,0-0.005,0h-12.059v9.65c0,1.754-1.411,3.18-3.165,3.199c-1.771-0.005-3.214-1.428-3.243-3.199v-23.8
	c-0.189-1.688,1.025-3.208,2.712-3.398c0.222-0.025,0.445-0.025,0.667-0.002h15.423c1.546,0,2.8,1.254,2.8,2.8l0,0
	c-0.028,1.521-1.278,2.735-2.8,2.718h-12.394V25.192z"/>
<path id="Path_7552" fill="#FFFFFF" d="M106.28,18.687l-4.776,13.63h9.556L106.28,18.687z M111.542,16.435l8.737,22.736
	c0.165,0.354,0.258,0.736,0.271,1.127c-0.007,1.799-1.472,3.25-3.271,3.242c-0.003,0-0.007,0-0.01,0
	c-1.371,0.018-2.596-0.854-3.029-2.154l-1.2-3.514H99.527l-1.223,3.514c-0.458,1.3-1.69,2.166-3.068,2.154
	c-1.787,0.004-3.239-1.441-3.243-3.229c0-0.004,0-0.01,0-0.014c0.002-0.387,0.081-0.77,0.233-1.127l8.775-22.736
	c0.83-2.192,2.938-3.633,5.281-3.611C108.613,12.828,110.701,14.262,111.542,16.435L111.542,16.435z"/>
<path id="Path_7553" fill="#FFFFFF" d="M90.552,34.123c0,5.496-3.923,9.65-12.02,9.65c-3.758,0.131-7.462-0.93-10.582-3.029
	c-0.845-0.535-1.357-1.465-1.359-2.466c-0.004-1.651,1.319-3.001,2.972-3.028c0.613-0.012,1.214,0.18,1.709,0.543
	c2.21,1.572,4.859,2.408,7.572,2.389c3.514,0,5.223-1.67,5.223-3.379c0-2.271-2.621-3.029-6.077-3.844
	c-4.912-1.127-11.223-2.485-11.223-9.201c0-5.009,4.33-9.068,11.844-9.068c3.28-0.034,6.509,0.825,9.339,2.485
	c0.914,0.511,1.479,1.478,1.476,2.524c-0.002,1.625-1.307,2.947-2.932,2.971c-0.543-0.001-1.075-0.156-1.534-0.447
	c-2.065-1.213-4.405-1.881-6.8-1.942c-3.34,0-4.854,1.262-4.854,3.068c0,2.039,2.523,2.66,5.979,3.476
	C84.242,25.949,90.552,27.444,90.552,34.123z"/>
<path id="Path_7554" fill="#FFFFFF" d="M31.7,40.841l18.815-18.776c0.871-0.864,2.155-1.164,3.319-0.777
	c1.17,0.374,2.022,1.384,2.194,2.6c0.353,2.293,0.425,4.621,0.214,6.932c-1.188,13.447-11.768,24.15-25.2,25.494
	c-0.936,0.094-1.875,0.139-2.814,0.137c-7.24,0.016-14.208-2.76-19.455-7.748c-5.938-5.664-9.126-13.627-8.737-21.824
	C0.829,12.625,12.052,1.16,26.287,0.065c7.684-0.558,15.254,2.092,20.912,7.32c1.18,1.072,1.267,2.897,0.194,4.077l0,0
	c-1.074,1.165-2.888,1.243-4.059,0.175c-4.127-3.8-9.534-5.907-15.145-5.9c-0.5,0-1.029,0.019-1.534,0.058
	C15.326,6.678,6.396,15.806,5.764,27.153c-0.311,6.53,2.234,12.872,6.971,17.377c4.755,4.504,11.229,6.721,17.747,6.077
	c10.643-1.184,19.007-9.653,20.057-20.31l0.02-0.155L35.743,44.919c-3.157,3.132-8.253,3.123-11.4-0.02L12.693,33.231
	c-4.045-4.089-4.24-10.608-0.447-14.931c1.954-2.075,4.664-3.273,7.514-3.32c2.849-0.032,5.59,1.081,7.611,3.087l2.679,2.679
	l7.165-7.2c1.123-1.116,2.937-1.116,4.059,0c0.539,0.541,0.84,1.275,0.835,2.039c0.005,0.764-0.296,1.498-0.835,2.039l-9.2,9.223
	c-1.127,1.104-2.931,1.104-4.058,0l-4.7-4.7c-0.908-0.927-2.158-1.44-3.456-1.417c-1.304,0.019-2.544,0.565-3.438,1.514
	c-1.678,2.055-1.535,5.045,0.33,6.931l11.65,11.67C29.322,41.736,30.782,41.734,31.7,40.841z"/>
</svg>
