<svg xmlns="http://www.w3.org/2000/svg" width="84.286" height="108.879" viewBox="0 0 84.286 108.879">
  <g id="Group_7444" data-name="Group 7444" transform="translate(-247.702 -412.459)">
    <path id="Path_7801" data-name="Path 7801" d="M319.921,479.748v36.725a4.631,4.631,0,0,1-4.634,4.634H254.345a4.639,4.639,0,0,1-4.643-4.634V437.711a4.639,4.639,0,0,1,4.643-4.634h9.6v9.81a4.639,4.639,0,0,0,4.643,4.634h32.055a4.631,4.631,0,0,0,4.634-4.634v-9.81h10.009a4.631,4.631,0,0,1,4.634,4.634v13.349" transform="translate(0 -1.769)" fill="none" stroke="#0c5457" stroke-linecap="round" stroke-linejoin="round" stroke-width="4"/>
    <path id="Path_7802" data-name="Path 7802" d="M306.775,426.315V441.12a4.631,4.631,0,0,1-4.634,4.634H270.086a4.639,4.639,0,0,1-4.643-4.634V426.315a4.639,4.639,0,0,1,4.643-4.634h8.806a7.222,7.222,0,0,1,14.444,0h8.806A4.631,4.631,0,0,1,306.775,426.315Z" transform="translate(-1.495)" fill="none" stroke="#0c5457" stroke-linecap="round" stroke-linejoin="round" stroke-width="4"/>
    <path id="Path_7804" data-name="Path 7804" d="M15.248,0A15.248,15.248,0,1,1,0,15.248,15.248,15.248,0,0,1,15.248,0Z" transform="translate(299.492 448.384)" fill="#338287" stroke="#0c5457" stroke-width="4"/>
    <g id="Group_7442" data-name="Group 7442" transform="translate(307.337 455.867)">
      <g id="Group_7441" data-name="Group 7441">
        <path id="Path_7803" data-name="Path 7803" d="M318.9,475.745a1.546,1.546,0,0,1-1.233-.613L313.7,469.9a1.547,1.547,0,0,1,2.467-1.867l2.607,3.444,6.559-10.531a1.547,1.547,0,0,1,2.626,1.635l-7.748,12.439a1.546,1.546,0,0,1-1.243.728Z" transform="translate(-313.387 -460.213)" fill="#fff"/>
      </g>
    </g>
    <g id="Group_7443" data-name="Group 7443" transform="translate(260.558 456.898)">
      <line id="Line_277" data-name="Line 277" x2="30.735" stroke-width="4" stroke="#0c5457" stroke-linecap="round" stroke-linejoin="round" fill="none"/>
      <line id="Line_278" data-name="Line 278" x2="30.735" transform="translate(0 12.742)" fill="none" stroke="#0c5457" stroke-linecap="round" stroke-linejoin="round" stroke-width="4"/>
      <line id="Line_279" data-name="Line 279" x2="48.509" transform="translate(0 25.485)" fill="none" stroke="#0c5457" stroke-linecap="round" stroke-linejoin="round" stroke-width="4"/>
      <line id="Line_280" data-name="Line 280" x2="48.509" transform="translate(0 38.227)" fill="none" stroke="#0c5457" stroke-linecap="round" stroke-linejoin="round" stroke-width="4"/>
      <line id="Line_281" data-name="Line 281" x2="48.509" transform="translate(0 49.557)" fill="none" stroke="#0c5457" stroke-linecap="round" stroke-linejoin="round" stroke-width="4"/>
    </g>
  </g>
</svg>
