<svg xmlns="http://www.w3.org/2000/svg" width="114.074" height="155.685" viewBox="0 0 114.074 155.685">
  <g id="Group_7456" data-name="Group 7456" transform="translate(-1083.261 -3551.489)">
    <g id="Group_7378" data-name="Group 7378" transform="translate(1085.77 3553.489)">
      <g id="Layer_1" data-name="Layer 1" transform="translate(53.09 0)">
        <path id="Path_7716" data-name="Path 7716" d="M335.635,270.383A32.821,32.821,0,0,1,368.456,303.2" transform="translate(-335.635 -245.19)" fill="none" stroke="#0d5558" stroke-linecap="round" stroke-miterlimit="10" stroke-width="4"/>
        <path id="Path_7717" data-name="Path 7717" d="M336.707,257.5a54.379,54.379,0,0,1,54.379,54.379" transform="translate(-334.611 -257.499)" fill="none" stroke="#0d5558" stroke-linecap="round" stroke-miterlimit="10" stroke-width="4"/>
      </g>
      <g id="Layer_3" data-name="Layer 3" transform="translate(0 34.542)">
        <path id="Path_7718" data-name="Path 7718" d="M327.784,334.632A21.347,21.347,0,0,0,359.545,324.6" transform="translate(-290.046 -227.936)" fill="#54c6fb" stroke="#0d5558" stroke-linecap="round" stroke-linejoin="round" stroke-width="4"/>
        <path id="Path_7719" data-name="Path 7719" d="M320.577,361.723c-.256-.679-.485-1.343-.7-2.034l-9.505-30.095a36.819,36.819,0,0,1,70.219-22.18l9.505,30.1c.219.688.413,1.367.593,2.069" transform="translate(-308.309 -268.91)" fill="none" stroke="#0d5558" stroke-linecap="round" stroke-linejoin="round" stroke-width="4"/>
        <path id="Path_7720" data-name="Path 7720" d="M319.6,292.265c-.055-.149-.1-.293-.151-.444l-2.069-6.551c-1.328-4.2.68-8.613,4.456-9.806a6.853,6.853,0,0,1,5.561.712,8.454,8.454,0,0,1,3.721,4.755l2.069,6.55c.047.151.09.3.131.45" transform="translate(-300.38 -275.164)" fill="none" stroke="#0d5558" stroke-linecap="round" stroke-linejoin="round" stroke-width="4"/>
        <rect id="Rectangle_813" data-name="Rectangle 813" width="20.928" height="99.245" rx="4.928" transform="translate(94.636 66.786) rotate(72.471)" stroke-width="4" stroke="#0d5558" stroke-linecap="round" stroke-linejoin="round" fill="none"/>
      </g>
    </g>
  </g>
</svg>
