<svg xmlns="http://www.w3.org/2000/svg" width="104.519" height="144.057" viewBox="0 0 104.519 144.057">
  <g id="Group_7455" data-name="Group 7455" transform="translate(-727.013 -3555.399)">
    <g id="Group_7377" data-name="Group 7377" transform="translate(729.013 3557.399)">
      <g id="Layer_1" data-name="Layer 1" transform="translate(0 0)">
        <path id="Path_7713" data-name="Path 7713" d="M267.092,268.631h25.8V400.65H192.376V268.631h26.891" transform="translate(-192.376 -260.593)" fill="none" stroke="#0d5558" stroke-linecap="round" stroke-linejoin="round" stroke-width="4"/>
        <rect id="Rectangle_812" data-name="Rectangle 812" width="47.824" height="15.785" transform="translate(26.891)" stroke-width="4" stroke="#0d5558" stroke-linecap="round" stroke-linejoin="round" fill="none"/>
      </g>
      <g id="Layer_3" data-name="Layer 3" transform="translate(11.471 39.585)">
        <path id="Path_7714" data-name="Path 7714" d="M222.521,326.857l-19.98-18.7a13.513,13.513,0,1,1,18.431-19.765l.033.031,1.515,1.418,1.513-1.418A13.513,13.513,0,1,1,242.5,308.159h0Z" transform="translate(-198.243 -284.765)" fill="#54c6fb" stroke="#0d5558" stroke-linecap="round" stroke-linejoin="round" stroke-width="4"/>
        <path id="Path_7715" data-name="Path 7715" d="M212,303.979h25.546l5.419,14.522,5.8-31.645,4.714,17.34h10.3" transform="translate(-185.104 -282.766)" fill="none" stroke="#0d5558" stroke-linecap="round" stroke-linejoin="round" stroke-width="4"/>
        <line id="Line_264" data-name="Line 264" x2="67.95" transform="translate(6.145 64.779)" fill="none" stroke="#0d5558" stroke-linecap="round" stroke-linejoin="round" stroke-width="4"/>
        <line id="Line_265" data-name="Line 265" x2="67.95" transform="translate(6.145 73.882)" fill="none" stroke="#0d5558" stroke-linecap="round" stroke-linejoin="round" stroke-width="4"/>
        <line id="Line_266" data-name="Line 266" x2="67.95" transform="translate(6.145 82.986)" fill="none" stroke="#0d5558" stroke-linecap="round" stroke-linejoin="round" stroke-width="4"/>
      </g>
    </g>
  </g>
</svg>
