<svg xmlns="http://www.w3.org/2000/svg" width="85.973" height="85.973" viewBox="0 0 85.973 85.973">
  <g id="Group_7383" data-name="Group 7383" transform="translate(2 2)">
    <path id="Path_7735" data-name="Path 7735" d="M540.065,652.4a19.049,19.049,0,0,1,10.672-17.041A18.528,18.528,0,0,1,559,633.47c.221,13.23,0,18.933,0,18.933Z" transform="translate(-521.131 -614.536)" fill="#338287" stroke="#065e5f" stroke-linecap="round" stroke-linejoin="round" stroke-width="4"/>
    <path id="Path_7736" data-name="Path 7736" d="M520.918,652.19a37.868,37.868,0,0,1,37.868-37.867" transform="translate(-520.918 -614.323)" fill="none" stroke="#065e5f" stroke-linecap="round" stroke-linejoin="round" stroke-width="4"/>
    <path id="Path_7737" data-name="Path 7737" d="M558.786,614.323v37.868H520.918" transform="translate(-520.918 -614.323)" fill="none" stroke="#065e5f" stroke-linecap="round" stroke-linejoin="round" stroke-width="4"/>
    <path id="Path_7738" data-name="Path 7738" d="M526.721,658.243a38.117,38.117,0,1,0,38.117-38.117v39.2Z" transform="translate(-520.983 -614.387)" fill="none" stroke="#065e5f" stroke-linecap="round" stroke-linejoin="round" stroke-width="4"/>
    <path id="Path_7734" data-name="Path 7734" d="M549.638,652.51a9.467,9.467,0,0,1,9.468-9.467" transform="translate(-521.237 -614.642)" fill="none" stroke="#065e5f" stroke-linecap="round" stroke-linejoin="round" stroke-width="4"/>
  </g>
</svg>
