<svg xmlns="http://www.w3.org/2000/svg" width="110.264" height="109.261" viewBox="0 0 110.264 109.261">
  <g id="Group_7382" data-name="Group 7382" transform="translate(-361.526 -603.741)">
    <circle id="Ellipse_553" data-name="Ellipse 553" cx="5.342" cy="5.342" r="5.342" transform="translate(399.724 658.359)" stroke-width="4" stroke="#065e5f" stroke-linecap="round" stroke-linejoin="round" fill="none"/>
    <circle id="Ellipse_554" data-name="Ellipse 554" cx="5.342" cy="5.342" r="5.342" transform="translate(412.678 634.01)" stroke-width="4" stroke="#065e5f" stroke-linecap="round" stroke-linejoin="round" fill="#338287"/>
    <circle id="Ellipse_555" data-name="Ellipse 555" cx="5.342" cy="5.342" r="5.342" transform="translate(380.264 636.724)" stroke-width="4" stroke="#065e5f" stroke-linecap="round" stroke-linejoin="round" fill="none"/>
    <path id="Path_7727" data-name="Path 7727" d="M429.053,629.755l-7.193,5.883a.088.088,0,0,1-.125,0" fill="none" stroke="#065e5f" stroke-linecap="round" stroke-linejoin="round" stroke-width="4"/>
    <path id="Path_7728" data-name="Path 7728" d="M414.3,643.192" fill="none" stroke="#065e5f" stroke-linecap="round" stroke-linejoin="round" stroke-width="4"/>
    <path id="Path_7729" data-name="Path 7729" d="M408.906,659.986a.088.088,0,0,1-.125,0c-.035-.035,4.866-7.07,4.9-7.1l.623-9.69" fill="none" stroke="#065e5f" stroke-linecap="round" stroke-linejoin="round" stroke-width="4"/>
    <path id="Path_7730" data-name="Path 7730" d="M389.32,645.782c.016-.047.09-.035.125,0l11.906,14.079a.088.088,0,0,1,0,.125.089.089,0,0,1-.062.026.091.091,0,0,1-.063-.026" fill="none" stroke="#065e5f" stroke-linecap="round" stroke-linejoin="round" stroke-width="4"/>
    <path id="Path_7731" data-name="Path 7731" d="M380.264,642.156H372.64a.089.089,0,1,1,0-.177h7.624a.089.089,0,0,1,0,.177Z" fill="none" stroke="#065e5f" stroke-linecap="round" stroke-linejoin="round" stroke-width="4"/>
    <path id="Path_7732" data-name="Path 7732" d="M468.128,701.282l-32.77-31.767a40.14,40.14,0,0,1-8.058,8.059l32.769,31.766a5.716,5.716,0,0,0,8.059,0h0A5.715,5.715,0,0,0,468.128,701.282Z" fill="none" stroke="#065e5f" stroke-linecap="round" stroke-linejoin="round" stroke-width="4"/>
    <path id="Path_7733" data-name="Path 7733" d="M403.413,605.741A39.887,39.887,0,1,0,443.3,645.628,39.887,39.887,0,0,0,403.413,605.741Zm0,70.87A30.984,30.984,0,1,1,434.4,645.628,31.018,31.018,0,0,1,403.412,676.611Z" fill="none" stroke="#065e5f" stroke-linecap="round" stroke-linejoin="round" stroke-width="4"/>
  </g>
</svg>
